# xmcd
#
# Track frame offsets:
#	150
#	18597
#	35259
#	52764
#	76303
#	83552
#	118688
#	135715
#	156404
#	174269
#	187013
#	207355
#	225855
#	244965
#
# Disc length: 3957 seconds
#
# Revision: 0
# Processed by: cddbd v1.5.2PL0 Copyright (c) Steve Scherf et al.
# Submitted via: EasyCDDAExtractor 11.0.0.1
#
DISCID=aa0f730e
DTITLE=ΣΤΟΚΑ ΜΠΑΜΠΗΣ - ΤΑ ΠΟΥΛΙΑ ΤΗΣ ΝΥΧΤΑΣ
DYEAR=1999
DGENRE=ΛΑΪΚΑ
TTITLE0=Στόκας Μπάμπης_01 Ο Νοτιάς
TTITLE1=Στόκας Μπάμπης_02 Άννα
TTITLE2=Στόκας Μπάμπης_03 Ήρθες πάλι
TTITLE3=Στόκας Μπάμπης_04 Το φώς έχει κλείσει
TTITLE4=Στόκας Μπάμπης_05 Κορώνη
TTITLE5=Στόκας Μπάμπης_06 Αντέχω
TTITLE6=Στόκας Μπάμπης_07 Ένα χαλασμένο παιχνίδι
TTITLE7=Στόκας Μπάμπης_08 Η ανάσα της αγάπης
TTITLE8=Στόκας Μπάμπης_09 Όταν άρχισε η βροχή
TTITLE9=Στόκας Μπάμπης_10 Ο Mister
TTITLE10=Στόκας Μπάμπης_11 Το κλάμα
TTITLE11=Στόκας Μπάμπης_12 Σκιές στο φώς
TTITLE12=Στόκας Μπάμπης_13 Γειά σου νύχτα καληνύχτα
TTITLE13=Στόκας Μπάμπης_14 Πουλιά της νύχτας
EXTD=
EXTT0=
EXTT1=
EXTT2=
EXTT3=
EXTT4=
EXTT5=
EXTT6=
EXTT7=
EXTT8=
EXTT9=
EXTT10=
EXTT11=
EXTT12=
EXTT13=
PLAYORDER=
